<?xml version="1.0" encoding="utf-8"?>
<!-- Generator: Adobe Illustrator 16.0.0, SVG Export Plug-In . SVG Version: 6.00 Build 0)  -->
<!DOCTYPE svg PUBLIC "-//W3C//DTD SVG 1.1//EN" "http://www.w3.org/Graphics/SVG/1.1/DTD/svg11.dtd">
<svg version="1.1" id="Layer_1" xmlns="http://www.w3.org/2000/svg" xmlns:xlink="http://www.w3.org/1999/xlink" x="0px" y="0px"
	 width="740.84px" height="608.465px" viewBox="0 0 740.84 608.465" enable-background="new 0 0 740.84 608.465"
	 xml:space="preserve">
<g>
	<path fill="#D0CDE1" d="M371.238,590.698c-2.783-0.029-5.617-0.047-8.387-0.146l0.091-2.777c2.749,0.081,5.542,0.108,8.297,0.11
		c2.734,0,5.563-0.033,8.378-0.117l0.064,2.776C376.846,590.648,374.051,590.698,371.238,590.698z M346.046,589.506
		c-5.556-0.515-11.181-1.236-16.676-2.116l0.433-2.77c5.452,0.889,11.005,1.589,16.519,2.118L346.046,589.506z M396.484,589.485
		l-0.249-2.787c5.513-0.517,11.065-1.247,16.488-2.118l0.492,2.771C407.692,588.236,402.039,588.93,396.484,589.485z
		 M312.819,584.191c-5.444-1.234-10.913-2.666-16.285-4.227l0.791-2.692c5.312,1.565,10.737,2.985,16.111,4.21L312.819,584.191z
		 M429.707,584.14l-0.619-2.728c5.382-1.23,10.836-2.657,16.136-4.226l0.797,2.676C440.629,581.463,435.189,582.898,429.707,584.14z
		 M280.566,574.665c-5.277-1.949-10.529-4.054-15.647-6.314l1.13-2.563c5.059,2.221,10.26,4.347,15.469,6.26L280.566,574.665z
		 M461.951,574.546l-0.925-2.621c5.156-1.902,10.325-3.989,15.4-6.236l1.104,2.537C472.451,570.494,467.205,572.642,461.951,574.546
		z M249.735,561.017c-4.94-2.566-9.882-5.355-14.676-8.253l1.445-2.41c4.736,2.875,9.632,5.65,14.535,8.19L249.735,561.017z
		 M492.684,560.938l-1.275-2.483c4.894-2.569,9.77-5.298,14.503-8.173l1.454,2.362C502.543,555.569,497.617,558.337,492.684,560.938
		z M220.933,543.56c-4.582-3.202-9.123-6.581-13.498-10.068l1.742-2.205c4.341,3.462,8.822,6.819,13.366,9.991L220.933,543.56z
		 M521.418,543.468l-1.562-2.309c4.531-3.15,9.01-6.503,13.335-9.945l1.72,2.163C530.564,536.86,526.035,540.264,521.418,543.468z
		 M194.611,522.57c-4.14-3.78-8.21-7.709-12.1-11.705l2.009-1.955c3.841,3.962,7.881,7.864,11.979,11.594L194.611,522.57z
		 M547.736,522.46l-1.892-2.064c4.079-3.708,8.12-7.606,11.985-11.576l2.007,1.934C555.939,514.781,551.876,518.723,547.736,522.46z
		 M171.186,498.418c-3.634-4.268-7.166-8.679-10.515-13.141l2.242-1.687c3.308,4.411,6.809,8.807,10.401,13.003L171.186,498.418z
		 M571.161,498.276l-2.153-1.797c3.607-4.203,7.103-8.584,10.405-13.018l2.243,1.664
		C578.328,489.614,574.786,494.044,571.161,498.276z M151.025,471.483c-3.063-4.671-5.994-9.531-8.743-14.386l2.435-1.353
		c2.714,4.777,5.622,9.579,8.652,14.198L151.025,471.483z M591.305,471.337l-2.318-1.558c3.021-4.606,5.923-9.435,8.644-14.22
		l2.442,1.374C597.291,461.775,594.368,466.641,591.305,471.337z M134.478,442.218c-2.43-5.057-4.728-10.215-6.831-15.37
		l2.584-1.043c2.086,5.114,4.358,10.224,6.757,15.192L134.478,442.218z M607.875,442.003l-2.517-1.219
		c2.379-4.985,4.647-10.113,6.756-15.261l2.574,1.069C612.601,431.772,610.313,436.941,607.875,442.003z M121.81,411.056
		c-1.76-5.314-3.383-10.736-4.802-16.156l2.71-0.684c1.398,5.34,3.001,10.701,4.748,15.957L121.81,411.056z M620.528,410.728
		l-2.656-0.862c1.729-5.217,3.335-10.631,4.736-15.979l2.702,0.739C623.889,400.016,622.271,405.475,620.528,410.728z
		 M113.269,378.49c-1.078-5.499-1.975-11.074-2.688-16.617l2.771-0.372c0.707,5.5,1.593,11.033,2.657,16.479L113.269,378.49z
		 M629.029,378.211l-2.729-0.553c1.048-5.397,1.919-10.933,2.633-16.436l2.763,0.37
		C630.995,367.139,630.078,372.715,629.029,378.211z M108.969,345.102c-0.369-5.562-0.547-11.188-0.553-16.825l2.796-0.002
		c0.009,5.537,0.189,11.179,0.541,16.689L108.969,345.102z M633.304,344.82l-2.812-0.186c0.364-5.515,0.548-11.099,0.548-16.637
		l-0.002-0.613h2.784v0.606C633.823,333.578,633.653,339.261,633.304,344.82z M111.716,311.637l-2.792-0.182
		c0.352-5.568,0.879-11.208,1.582-16.747l2.773,0.367C112.579,300.544,112.057,306.112,111.716,311.637z M630.464,310.747
		c-0.376-5.528-0.897-11.123-1.625-16.586l2.79-0.375c0.698,5.535,1.268,11.201,1.633,16.771L630.464,310.747z M115.886,278.611
		l-2.737-0.524c1.055-5.472,2.299-10.999,3.712-16.417l2.695,0.707C118.172,267.725,116.938,273.182,115.886,278.611z
		 M626.164,277.703c-1.054-5.431-2.303-10.885-3.718-16.224l2.691-0.714c1.428,5.409,2.686,10.934,3.785,16.407L626.164,277.703z
		 M124.27,246.397l-2.658-0.888c1.757-5.29,3.71-10.618,5.815-15.823l2.584,1.041C127.944,235.863,126.007,241.15,124.27,246.397z
		 M617.69,245.513c-1.775-5.244-3.703-10.491-5.795-15.612l2.576-1.046c2.094,5.16,4.085,10.477,5.86,15.787L617.69,245.513z
		 M136.761,215.466l-2.528-1.202c2.431-5.043,5.055-10.076,7.792-14.94l2.439,1.36C141.751,205.508,139.149,210.496,136.761,215.466
		z M605.112,214.715c-2.392-4.963-5.006-9.927-7.724-14.739l2.426-1.367c2.752,4.851,5.393,9.865,7.818,14.884L605.112,214.715z
		 M153.098,186.428l-2.333-1.526c3.038-4.678,6.286-9.335,9.633-13.818l2.232,1.681
		C159.326,177.194,156.116,181.798,153.098,186.428z M588.699,185.782c-3.002-4.618-6.232-9.211-9.543-13.632l2.234-1.686
		c3.343,4.474,6.603,9.104,9.665,13.785L588.699,185.782z M173.022,159.732l-2.136-1.818c3.621-4.261,7.423-8.459,11.312-12.476
		l2.012,1.945C180.361,151.357,176.606,155.509,173.022,159.732z M568.73,159.147c-3.587-4.201-7.374-8.332-11.239-12.307
		l2.017-1.948c3.896,4.005,7.733,8.196,11.336,12.439L568.73,159.147z M196.156,135.775l-1.88-2.063
		c4.134-3.768,8.441-7.447,12.802-10.933l1.746,2.185C204.513,128.412,200.25,132.058,196.156,135.775z M545.529,135.267
		c-4.099-3.706-8.381-7.338-12.705-10.78l1.714-2.182c4.413,3.479,8.729,7.142,12.857,10.895L545.529,135.267z M222.15,114.977
		l-1.604-2.288c4.574-3.202,9.307-6.309,14.091-9.212l1.449,2.386C231.366,108.738,226.671,111.806,222.15,114.977z
		 M519.468,114.533c-4.559-3.169-9.251-6.222-13.984-9.084l1.454-2.392c4.765,2.894,9.508,5.979,14.118,9.174L519.468,114.533z
		 M250.56,97.663l-1.298-2.472c4.95-2.592,10.029-5.057,15.137-7.324l1.134,2.552C260.492,92.657,255.459,95.099,250.56,97.663z
		 M490.957,97.286c-4.912-2.555-9.989-4.985-15.072-7.221l1.157-2.559c5.122,2.258,10.238,4.714,15.189,7.292L490.957,97.286z
		 M280.94,84.141l-0.966-2.617c5.237-1.937,10.606-3.736,15.978-5.326l0.785,2.681C291.447,80.448,286.127,82.231,280.94,84.141z
		 M460.439,83.825c-5.176-1.895-10.5-3.647-15.811-5.215l0.798-2.681c5.352,1.583,10.718,3.359,15.991,5.278L460.439,83.825z
		 M312.85,74.637l-0.64-2.726c5.445-1.244,11.018-2.337,16.546-3.227l0.438,2.751C323.736,72.328,318.226,73.406,312.85,74.637z
		 M428.485,74.433c-5.373-1.217-10.886-2.273-16.371-3.137l0.487-2.762c5.472,0.878,11.083,1.944,16.498,3.172L428.485,74.433z
		 M345.708,69.305l-0.281-2.783c5.546-0.543,11.223-0.905,16.803-1.092l0.096,2.792C356.788,68.408,351.211,68.765,345.708,69.305z
		 M395.621,69.216c-5.509-0.513-11.087-0.864-16.619-1.023l0.06-2.791c5.575,0.163,11.254,0.516,16.805,1.033L395.621,69.216z"/>
	<path fill="#F9A826" d="M361.326,6.595c36.307,0,65.69,29.405,65.69,65.676c0,36.264-29.383,65.674-65.69,65.674
		c-36.252,0-65.662-29.41-65.662-65.674C295.664,36,325.074,6.595,361.326,6.595z"/>
	<path fill="#F9A826" d="M615.667,185.466c36.264,0,65.661,29.385,65.661,65.663c0,36.279-29.397,65.662-65.661,65.662
		c-36.28,0-65.671-29.383-65.671-65.662C549.996,214.851,579.387,185.466,615.667,185.466z"/>
	<path fill="#F9A826" d="M536.006,459.321c36.256,0,65.695,29.439,65.695,65.702c0,36.271-29.439,65.676-65.695,65.676
		c-36.257,0-65.686-29.405-65.686-65.676C470.321,488.76,499.749,459.321,536.006,459.321z"/>
	<path fill="#F9A826" d="M220.203,470.528c36.279,0,65.671,29.382,65.671,65.662c0,36.278-29.392,65.682-65.671,65.682
		c-36.27,0-65.681-29.403-65.681-65.682C154.522,499.909,183.933,470.528,220.203,470.528z"/>
	<path fill="#F9A826" d="M125.183,185.466c36.27,0,65.681,29.385,65.681,65.663c0,36.279-29.411,65.662-65.681,65.662
		c-36.28,0-65.679-29.383-65.679-65.662C59.504,214.851,88.903,185.466,125.183,185.466z"/>
	<path fill="#FFFFFF" d="M389.485,67.032H366.56c-4.33,0-7.838-3.517-7.838-7.851V36.265c0-0.352-0.297-0.648-0.643-0.648l0,0
		h-15.06c-5.8,0-10.47,4.691-10.47,10.468v52.363c0,5.781,4.669,10.476,10.47,10.476l0,0h36.64c5.772,0,10.469-4.695,10.469-10.476
		l0,0V67.689C390.128,67.32,389.86,67.032,389.485,67.032L389.485,67.032z M374.453,93.213h-26.2c-1.443,0-2.632-1.178-2.632-2.621
		s1.188-2.613,2.632-2.613h26.2c1.443,0,2.574,1.169,2.574,2.613S375.897,93.213,374.453,93.213z M374.453,80.122h-26.2
		c-1.443,0-2.632-1.17-2.632-2.614c0-1.449,1.188-2.621,2.632-2.621h26.2c1.443,0,2.574,1.172,2.574,2.621
		C377.028,78.952,375.897,80.122,374.453,80.122z"/>
	<path fill="#FFFFFF" d="M388.048,61.242L364.502,37.7c-0.121-0.125-0.328-0.124-0.448,0.002c-0.072,0.068-0.098,0.155-0.098,0.237
		v21.242c0,1.446,1.16,2.609,2.604,2.612h21.265c0.188-0.002,0.293-0.141,0.292-0.327C388.116,61.377,388.092,61.301,388.048,61.242
		z"/>
	<path fill="#FFFFFF" d="M545.521,512.087c-1.958,0-3.481,1.545-3.48,3.484c0,1.919,1.524,3.476,3.483,3.476
		c1.9-0.002,3.481-1.56,3.48-3.479c-0.001-0.933-0.379-1.809-1.022-2.461C547.323,512.428,546.414,512.086,545.521,512.087z"/>
	<path fill="#FFFFFF" d="M564.87,498.172v-0.021c-0.22-0.977-0.983-1.764-1.951-1.99c-3.878-0.97-10,0.045-16.773,2.744
		c-6.528,2.569-12.485,6.321-17.573,11.143c-1.362,1.354-2.673,2.855-3.829,4.4c-2.603-0.188-5.23,0.229-7.661,1.228
		c-7.508,3.304-9.668,11.802-10.253,15.285c-0.271,1.758,0.937,3.439,2.674,3.756c0.321,0.035,0.589,0.042,0.894,0.021h0.024
		l8.384-0.91c0.01,0.098,0.029,0.206,0.039,0.29c0.078,1.023,0.521,1.979,1.274,2.692l4.095,4.097
		c0.715,0.749,1.669,1.198,2.692,1.3l0.296,0.036l-0.924,8.368v0.029c-0.191,1.768,1.111,3.381,2.897,3.572l0,0
		c0.126,0.008,0.202,0.012,0.329,0.013c0.172,0,0.327-0.011,0.508-0.033c3.497-0.577,12.012-2.683,15.31-10.256
		c0.983-2.425,1.405-5.044,1.232-7.606c1.563-1.188,3.05-2.467,4.394-3.861c4.836-5.051,8.59-10.939,11.161-17.417
		C564.804,508.333,565.823,502.177,564.87,498.172z M550.913,520.974c-2.968,2.991-7.831,2.997-10.848,0.004
		c-2.96-3.015-2.962-7.848-0.004-10.846c3.015-3.006,7.87-3.008,10.847-0.005l0,0l0.005,0.005c3.015,2.925,3.04,7.77,0.096,10.763
		l0,0L550.913,520.974z"/>
	<path fill="#FFFFFF" d="M523.756,542.033c-0.53-0.083-1.013,0.063-1.436,0.327c-0.839,0.583-1.677,1.16-2.552,1.698
		c-0.88,0.563-2.092,0.317-2.683-0.583c-0.398-0.609-0.412-1.385-0.036-2.015l1.601-2.767c0.641-0.925,0.407-2.245-0.564-2.898
		c-0.416-0.263-0.91-0.409-1.434-0.327c-1.745,0.22-3.382,1.024-4.666,2.272c-0.458,0.478-1.905,1.926-2.697,7.461
		c-0.217,1.605-0.35,3.195-0.417,4.798c-0.021,1.149,0.896,2.114,2.037,2.147l0,0c0.013,0,0.026,0,0.039,0h0.091
		c1.569-0.061,3.176-0.197,4.78-0.414c5.537-0.794,6.986-2.241,7.455-2.719c1.29-1.248,2.079-2.893,2.291-4.657
		C525.687,543.19,524.871,542.154,523.756,542.033z"/>
	<path fill="#FFFFFF" d="M197.596,571.875h-4.759c-1.965,0-3.565-1.599-3.565-3.547l0,0v-21.445c0-1.939,1.6-3.545,3.565-3.545l0,0
		h4.759c1.981,0,3.572,1.605,3.572,3.545l0,0v21.445C201.168,570.277,199.577,571.875,197.596,571.875L197.596,571.875z"/>
	<path fill="#FFFFFF" d="M230.907,571.875h-4.756c-1.965,0-3.575-1.599-3.575-3.547l0,0v-35.688c0-1.991,1.609-3.601,3.575-3.601
		l0,0h4.756c1.976,0,3.565,1.609,3.565,3.601l0,0v35.688C234.473,570.277,232.884,571.875,230.907,571.875L230.907,571.875z"/>
	<path fill="#FFFFFF" d="M247.568,571.875h-4.766c-1.974,0-3.563-1.599-3.563-3.547l0,0v-52.347c0-1.975,1.588-3.585,3.563-3.585
		h4.766c1.965,0,3.572,1.61,3.572,3.585v52.347C251.14,570.277,249.533,571.875,247.568,571.875L247.568,571.875z"/>
	<path fill="#FFFFFF" d="M214.255,571.875h-4.759c-1.971,0-3.563-1.599-3.563-3.547l0,0v-64.243c0-1.974,1.591-3.583,3.563-3.583
		h4.759c1.965,0,3.574,1.609,3.574,3.583v64.243C217.829,570.277,216.22,571.875,214.255,571.875L214.255,571.875z"/>
	<path fill="#FFFFFF" d="M618.793,249.402l-3.384-3.396c-1.623-1.626-4.247-1.631-5.879-0.011l-23.629,21.821
		c-0.876,0.753-1.402,1.846-1.481,2.994c-0.071,1.151,0.36,2.28,1.175,3.105l5.09,5.151l0.007,0.017
		c0.795,0.764,1.846,1.223,2.968,1.228h0.131c1.18-0.076,2.247-0.596,3.033-1.478l21.96-23.516c1.636-1.625,1.645-4.27,0.018-5.9
		L618.793,249.402z"/>
	<path fill="#FFFFFF" d="M646.123,242.529l-0.049-0.029l-4.438-4.415c-0.533-0.522-1.265-0.819-1.991-0.816
		c-0.599,0-1.19,0.194-1.673,0.532c0-0.041,0.008-0.108,0.01-0.143c0.185-1.156-0.063-2.322-0.679-3.284
		c-0.979-1.327-2.063-2.591-3.221-3.756l-0.014-0.008c-3.252-3.134-7.1-5.611-11.288-7.282c-2.191-0.907-4.565-1.355-6.909-1.353
		c-3.071-0.041-6.077,1.019-8.426,2.94c-0.701,0.657-1.316,1.367-1.848,2.113c-0.688,0.93-0.477,2.241,0.451,2.908
		c0.582,0.411,1.304,0.505,1.968,0.265c0.343-0.127,0.725-0.241,1.112-0.333c0.798-0.178,1.609-0.225,2.418-0.166
		c1.659,0.183,3.26,0.777,4.611,1.715c1.59,1.326,2.451,3.292,2.399,5.345c-0.589,1.645-1.454,3.173-2.621,4.496
		c-0.626,0.827-0.529,1.984,0.193,2.717l4.488,4.487c0.793,0.794,2.044,0.819,2.866,0.087c1.258-1.13,3.206-2.847,3.879-3.263
		c0.584-0.389,1.229-0.635,1.896-0.744c0.525-0.065,1.023,0.042,1.481,0.309c0.008,0.032-0.013,0.094-0.051,0.118l-0.228,0.219
		l-0.028,0.054c-1.097,1.074-1.099,2.862-0.006,3.944l0.011,0.01l4.46,4.416c0.51,0.549,1.252,0.817,1.981,0.813
		c0.746,0.001,1.46-0.265,1.983-0.793l7.213-7.138c0.018-0.018,0.073-0.065,0.091-0.083
		C647.176,245.304,647.158,243.625,646.123,242.529z"/>
	<path fill="#FFFFFF" d="M135.611,247.222c-1.44,0-2.612-1.156-2.612-2.595c0-0.699,0.281-1.377,0.768-1.845l5.978-5.997
		l-5.978-5.97c-1.013-1.022-1.006-2.669,0.014-3.688c1.014-1.015,2.658-1.015,3.673,0l7.822,7.813c1.02,1.02,1.02,2.667,0,3.688
		c0,0,0,0,0,0.001l-7.822,7.834C136.967,246.938,136.303,247.223,135.611,247.222z"/>
	<path fill="#FFFFFF" d="M93.902,255.034c-1.438,0-2.608-1.156-2.608-2.594l0,0v-2.622c0.044-8.617,7.018-15.593,15.634-15.628h33.9
		c1.438-0.002,2.606,1.152,2.609,2.591c0.002,1.438-1.161,2.626-2.602,2.628c-0.002,0-0.005,0-0.008,0h-33.895
		c-5.746,0.024-10.394,4.674-10.432,10.42v2.611C96.501,253.879,95.341,255.034,93.902,255.034
		C93.902,255.034,93.902,255.034,93.902,255.034z"/>
	<path fill="#FFFFFF" d="M114.749,275.907c-0.685,0.001-1.352-0.284-1.843-0.779l-7.817-7.814c-1.021-1.019-1.021-2.667,0-3.688l0,0
		l7.817-7.813c1.021-1.019,2.673-1.016,3.686,0.008c1.014,1.019,1.014,2.66,0,3.679l-5.97,5.97l5.97,5.969
		c1.019,1.02,1.019,2.668,0,3.688C116.111,275.624,115.445,275.907,114.749,275.907z"/>
	<path fill="#FFFFFF" d="M109.541,268.066c-1.444-0.002-2.606-1.161-2.604-2.599c0.003-1.435,1.168-2.587,2.604-2.6h33.891
		c5.746-0.044,10.395-4.687,10.427-10.433v-2.613c0.002-1.443,1.17-2.597,2.608-2.595c1.436,0.003,2.606,1.159,2.609,2.595v2.619
		c-0.049,8.616-7.022,15.592-15.639,15.625H109.541z"/>
</g>
<g>
	<path fill="#FFB8B8" d="M471.784,393.198c0,0,43.895,2.252,33.645,16.076c-10.199,13.83-37.064-8.111-37.064-8.111L471.784,393.198
		z"/>
	<path fill="#575A89" d="M390.856,261.573l8.919,2.231c0,0,5.257,15.637,8.95,29.786c3.739,14.15,11.175,56.568,11.175,56.568
		l57.729,40.473l-6.862,15.43l-76.938-30.305l-17.131-67.275L390.856,261.573z"/>
	<polygon opacity="0.2" enable-background="new    " points="399.287,289.322 395.94,359.074 402.866,379.781 382.51,364.901 	"/>
	<path fill="#2F2E41" d="M411.324,413.11c0,0,9.714,26.057,11.203,43.939c1.482,17.855,2.973,32.01,2.973,32.01h-45.414
		l-8.954-13.391v13.391H318.26c0,0-14.892-48.4-8.933-54.371c5.957-5.965,62.548-31.256,62.548-31.256L411.324,413.11z"/>
	<path fill="#FFB8B8" d="M354.383,176.681c15.637,0,28.285,12.667,28.285,28.297c0,15.624-12.648,28.297-28.285,28.297
		c-15.655,0-28.305-12.673-28.305-28.297C326.078,189.348,338.728,176.681,354.383,176.681z"/>
	<path fill="#FFB8B8" d="M332.776,216.889l-2.22,32.765l28.285,37.987l14.178-35.749c0,0-12.689-8.2-5.259-25.319L332.776,216.889z"
		/>
	<path fill="#575A89" d="M415.439,419.44c0,6.703-18.638,17.139-18.638,17.139v3.691l-7.432,3.746l-16.352-32.789l-4.471,35.764
		c0,0-32.799,5.207-43.206,0c-10.424-5.234-15.644-2.975-30.542-8.211c-14.885-5.178,5.969-75.201,5.969-75.201l-14.896-107.959
		l32.522-16.274l1.714-0.86l4.485-0.819l6.855-1.271l22.933,15.498l1.829,9.682l1.144,5.951l5.947-6.698l4.497-14.793l31.975,17.773
		l-8.919,71.485C390.856,335.291,415.439,412.713,415.439,419.44z"/>
	<path fill="#FFB8B8" d="M305.984,442.531c0,0,34.224,27.545,17.871,32.74c-16.381,5.221-25.327-28.281-25.327-28.281
		L305.984,442.531z"/>
	<path fill="#575A89" d="M293.311,257.108l-7.439-1.488c0,0-11.168,5.954-11.911,17.854c-0.747,11.936-10.433,95.32-10.433,95.32
		l31.272,84.148l25.311-9.695l-24.566-78.914l18.617-68.512L293.311,257.108z"/>
	<path fill="#2F2E41" d="M357.665,274.386c1.507,0,2.688,1.228,2.688,2.733c0,1.494-1.181,2.698-2.688,2.698
		c-1.513,0-2.712-1.204-2.712-2.698C354.953,275.615,356.152,274.386,357.665,274.386z"/>
	<path fill="#2F2E41" d="M357.665,292.046c1.507,0,2.688,1.203,2.688,2.702c0,1.513-1.181,2.729-2.688,2.729
		c-1.513,0-2.712-1.216-2.712-2.729C354.953,293.249,356.152,292.046,357.665,292.046z"/>
	<path fill="#2F2E41" d="M373.018,408.315c1.488,0,2.744,1.189,2.744,2.688c0,1.51-1.256,2.725-2.744,2.725
		c-1.484,0-2.712-1.215-2.712-2.725C370.306,409.504,371.533,408.315,373.018,408.315z"/>
	<path fill="#2F2E41" d="M330.49,175.988l-5.245-2.091c0,0,10.961-12.047,26.166-10.996l-4.271-4.713c0,0,10.445-4.184,19.939,6.804
		c5.024,5.779,10.815,12.575,14.401,20.228h5.603l-2.307,5.147l8.139,5.148l-8.347-0.926c0.457,2.82,0.571,5.7,0.229,8.539
		c-0.376,2.843-1.829,5.434-4.089,7.229l0,0c0,0-6.455-13.428-6.455-15.523v5.237c0,0-5.233-4.716-5.233-7.857l-2.861,3.667h-19.018
		l2.848-4.712l-10.925,1.57l4.247-5.756l-16.931,23.78C326.378,210.764,316.686,183.843,330.49,175.988z"/>
	<polygon opacity="0.2" enable-background="new    " points="302.231,385.824 320.323,442.317 305.86,383.537 	"/>
</g>
</svg>
