<?xml version="1.0" encoding="utf-8"?>
<!-- Generator: Adobe Illustrator 16.0.0, SVG Export Plug-In . SVG Version: 6.00 Build 0)  -->
<!DOCTYPE svg PUBLIC "-//W3C//DTD SVG 1.1//EN" "http://www.w3.org/Graphics/SVG/1.1/DTD/svg11.dtd">
<svg version="1.1" id="currentIllo" xmlns="http://www.w3.org/2000/svg" xmlns:xlink="http://www.w3.org/1999/xlink" x="0px"
	 y="0px" width="601.6px" height="630px" viewBox="0 0 601.6 630" enable-background="new 0 0 601.6 630" xml:space="preserve">
<rect x="457.766" y="60.518" transform="matrix(0.6893 -0.7244 0.7244 0.6893 59.0714 367.9858)" fill="#E6E6E6" width="1.67" height="109.197"/>
<polygon fill="#E6E6E6" points="498.845,143.982 497.175,144.083 497.679,152.309 489.438,152.21 489.419,153.882 499.457,154.001 
	"/>
<polygon fill="#E6E6E6" points="427.781,76.326 427.763,77.998 419.522,77.899 420.026,86.125 418.355,86.226 417.745,76.206 "/>
<circle fill="#E6E6E6" cx="458.6" cy="115.104" r="9.193"/>
<rect x="90.07" y="114.258" transform="matrix(0.7243 -0.6895 0.6895 0.7243 -39.4703 131.48)" fill="#E6E6E6" width="109.197" height="1.672"/>
<polygon fill="#E6E6E6" points="103.815,154.001 113.853,153.882 113.834,152.21 105.593,152.309 106.097,144.083 104.427,143.982 
	"/>
<polygon fill="#E6E6E6" points="185.527,76.206 184.916,86.226 183.246,86.125 183.749,77.899 175.508,77.998 175.49,76.326 "/>
<circle fill="#E6E6E6" cx="144.672" cy="115.104" r="9.193"/>
<path fill="#E6E6E6" d="M198.695,472.719v-36.036c0.002-2.075,1.685-3.758,3.761-3.761h30.537c2.076,0.003,3.758,1.686,3.761,3.761
	v36.036c-0.002,2.076-1.685,3.759-3.761,3.761h-30.537C200.38,476.478,198.697,474.795,198.695,472.719z"/>
<path fill="#EFA51F" d="M209.695,460.719v-36.036c0.002-2.075,1.685-3.758,3.761-3.761h30.537c2.076,0.003,3.758,1.686,3.761,3.761
	v36.036c-0.002,2.076-1.685,3.759-3.761,3.761h-30.537C211.38,464.478,209.697,462.795,209.695,460.719z"/>
<path fill="#A0616A" d="M346.584,449.188c-4.341-2.51-5.826-8.062-3.317-12.401c0.269-0.463,0.575-0.901,0.921-1.312l-9.467-69.188
	l19.719,0.968l3.095,67.485c3.631,3.497,3.739,9.274,0.242,12.904C354.849,450.686,350.223,451.322,346.584,449.188L346.584,449.188
	z"/>
<path fill="#CCCCCC" d="M357.145,368.18c-0.403,0.475-0.922,0.842-1.506,1.063l-17.719,6.763c-1.849,0.705-3.926-0.156-4.729-1.965
	l-15.696-35.275c-1.507-3.271-1.765-6.981-0.721-10.431c1.568-5.015,5.756-8.767,10.91-9.782c1.946-0.4,3.956-0.371,5.891,0.083
	c4.709,1.05,8.567,4.405,10.264,8.921l13.956,36.891C358.271,365.717,358.023,367.146,357.145,368.18z"/>
<polygon fill="#A0616A" points="264.807,618.06 252.547,618.06 248.102,570.549 264.809,570.773 "/>
<path fill="#676785" d="M243.79,614.557h23.644l0,0v14.888l0,0h-38.531l0,0l0,0C228.903,621.222,235.568,614.557,243.79,614.557z"/>
<polygon fill="#A0616A" points="321.807,618.06 309.547,618.06 303.715,570.772 321.809,570.773 "/>
<path fill="#676785" d="M300.79,614.557h23.645l0,0v14.888l0,0h-38.531l0,0l0,0C285.903,621.222,292.568,614.557,300.79,614.557z"/>
<path fill="#EFA51F" d="M323.349,601.235l-19.255-1.427c-2.266-0.17-4.05-2.001-4.162-4.271l-4.292-88.73
	c-0.094-1.931-1.735-3.42-3.666-3.325c-1.597,0.076-2.938,1.227-3.259,2.793l-17.912,87.406c-0.458,2.227-2.502,3.762-4.767,3.582
	l-17.406-1.393c-2.477-0.197-4.325-2.366-4.126-4.844c0.002-0.029,0.005-0.06,0.008-0.09l16.148-161.477
	c0.247-2.473,2.452-4.276,4.924-4.029c0.171,0.018,0.341,0.044,0.509,0.08l61.406,13.35c2.097,0.461,3.578,2.335,3.543,4.48
	l-2.86,153.488c-0.047,2.448-2.041,4.409-4.488,4.416C323.578,601.248,323.464,601.243,323.349,601.235z"/>
<circle fill="#A0616A" cx="306.503" cy="269.888" r="24.561"/>
<path fill="#CCCCCC" d="M268.396,441.915c-4.779-4.285-7.444-10.448-7.294-16.866c0-35.301,30.556-114.168,31.514-116.629
	c0.094-0.593,0.9-0.849,5.13-3.706c4.231-2.859,10.335-3.299,18.14-1.306c1.616,0.414,2.869,1.693,3.25,3.318l1.451,2.098
	c0.256,1.079,1.009,1.972,2.029,2.406c6.293,2.651,26.298,14.877,19.48,60.892c-6.333,42.743-8.901,67.881-9.713,76.705
	c-0.197,2.161-1.91,3.872-4.071,4.064c-3.086,0.276-8.382,0.645-14.688,0.645C299.002,453.536,278.946,451.563,268.396,441.915z"/>
<path fill="#A0616A" d="M239.047,428.837c-2.207-4.501-0.346-9.938,4.155-12.146c0.48-0.235,0.98-0.428,1.494-0.575l30.693-62.726
	l15.833,11.791l-35.034,57.763c1.066,4.927-2.064,9.783-6.991,10.851C245.076,434.686,240.879,432.637,239.047,428.837
	L239.047,428.837z"/>
<path fill="#CCCCCC" d="M292.956,367.454c-0.601,0.17-1.234,0.187-1.843,0.045l-18.482-4.258c-1.928-0.444-3.171-2.317-2.832-4.267
	l6.623-38.037c0.572-3.558,2.426-6.782,5.213-9.064c4.098-3.289,9.666-4.072,14.512-2.042c1.839,0.751,3.492,1.895,4.844,3.351
	c3.325,3.496,4.66,8.432,3.551,13.126l-8.967,38.408C295.265,366.038,294.262,367.086,292.956,367.454z"/>
<path fill="#676785" d="M300.753,292.079c-2.427-2.476-3.487-5.982-2.839-9.387c0.855-4.479,1.359-7.411,1.454-8.477l0,0
	c0.326-3.648-3.361-6.601-7.01-7.071c-0.142-0.019-0.26-0.031-0.358-0.039c0.093,0.091,0.192,0.185,0.28,0.267
	c0.693,0.651,1.556,1.461,1.351,2.298c-0.124,0.503-0.583,0.86-1.407,1.091c-5.706,1.597-10.101,0.131-13.831-4.617
	c-1.048-1.349-1.769-2.923-2.105-4.598c-1.336-6.555,2.224-12.143,5.446-15.676c2.656-2.913,6.963-6.449,12.394-6.752
	c4.223-0.236,9.246,2.194,10.749,6.574c1.438-2.13,3.795-3.459,6.361-3.586c2.884-0.063,5.722,0.727,8.158,2.269
	c11.908,6.822,17.026,23.072,11.177,35.488c-3.681,7.809-11.654,13.623-20.811,15.172c-0.572,0.097-1.152,0.146-1.733,0.146
	C305.282,295.179,302.656,294.059,300.753,292.079z"/>
<path fill="#676785" d="M185.579,630h195c0.552,0,1-0.447,1-1s-0.448-1-1-1h-195c-0.552,0-1,0.447-1,1S185.026,630,185.579,630z"/>
<path fill="#3F3D56" d="M153.771,354.979c0,8.285-6.716,15-15,15H15c-8.284,0-15-6.715-15-15v-158.5c0-8.284,6.716-15,15-15h123.771
	c8.284,0,15,6.716,15,15V354.979z"/>
<path fill="#3F3D56" d="M601.599,354.979c0,8.285-6.716,15-15,15H462.828c-8.285,0-15-6.715-15-15V196.479c0-8.284,6.715-15,15-15
	h123.771c8.284,0,15,6.716,15,15V354.979z"/>
<path fill="#3F3D56" d="M377.685,174.521c0,8.285-6.716,15-15,15H238.914c-8.285,0-15-6.715-15-15V16.022c0-8.284,6.715-15,15-15
	h123.771c8.284,0,15,6.716,15,15V174.521z"/>
<path fill="#676785" d="M124.249,221.893H82.462c-1.846,0-3.343-1.497-3.343-3.343c0-1.846,1.497-3.343,3.343-3.343h41.786
	c1.846,0,3.343,1.497,3.343,3.343C127.591,220.396,126.095,221.893,124.249,221.893z"/>
<path fill="#676785" d="M124.249,239.443H82.462c-1.846,0-3.343-1.497-3.343-3.343c0-1.846,1.497-3.343,3.343-3.343h41.786
	c1.846,0,3.343,1.497,3.343,3.343C127.591,237.946,126.095,239.443,124.249,239.443z"/>
<path fill="#EFA51F" d="M61.022,249.436H30.485c-2.076-0.002-3.759-1.685-3.761-3.76V209.64c0.002-2.076,1.685-3.758,3.761-3.76
	h30.537c2.076,0.002,3.758,1.685,3.76,3.76v36.036C64.781,247.751,63.098,249.434,61.022,249.436z"/>
<path fill="#CCCCCC" d="M123.959,275.378H29.523c-1.846,0.004-3.346-1.488-3.351-3.334c-0.004-1.846,1.488-3.347,3.334-3.351
	c0.006,0,0.011,0,0.017,0h94.436c1.846-0.005,3.346,1.488,3.351,3.334c0.004,1.846-1.488,3.347-3.334,3.351
	C123.97,275.378,123.964,275.378,123.959,275.378z"/>
<path fill="#CCCCCC" d="M123.959,292.929H29.523c-1.846,0.004-3.346-1.489-3.351-3.335c-0.004-1.846,1.488-3.346,3.334-3.351
	c0.006,0,0.011,0,0.017,0h94.436c1.846-0.004,3.346,1.488,3.351,3.334c0.004,1.846-1.488,3.347-3.334,3.352
	C123.97,292.929,123.964,292.929,123.959,292.929z"/>
<path fill="#CCCCCC" d="M123.959,310.479H29.523c-1.846,0.004-3.346-1.488-3.351-3.334c-0.004-1.846,1.488-3.347,3.334-3.351
	c0.006,0,0.011,0,0.017,0h94.436c1.846-0.005,3.346,1.488,3.351,3.334c0.004,1.846-1.488,3.347-3.334,3.351
	C123.97,310.479,123.964,310.479,123.959,310.479z"/>
<path fill="#CCCCCC" d="M123.959,328.027H29.523c-1.846,0.006-3.346-1.487-3.351-3.334c-0.004-1.846,1.488-3.346,3.334-3.352
	c0.006,0,0.011,0,0.017,0h94.436c1.846-0.005,3.346,1.488,3.351,3.335c0.004,1.847-1.488,3.347-3.334,3.351
	C123.97,328.027,123.964,328.027,123.959,328.027z"/>
<path fill="#CCCCCC" d="M123.959,345.578H29.523c-1.846,0.005-3.346-1.488-3.351-3.334c-0.004-1.846,1.488-3.348,3.334-3.352
	c0.006,0,0.011,0,0.017,0h94.436c1.846-0.004,3.346,1.487,3.351,3.334c0.004,1.848-1.488,3.348-3.334,3.352
	C123.97,345.578,123.964,345.578,123.959,345.578z"/>
<path fill="#EFA51F" d="M289.26,84.358h-30.537c-2.076-0.002-3.758-1.685-3.761-3.761V44.562c0.002-2.076,1.685-3.758,3.761-3.761
	h30.537c2.076,0.002,3.758,1.685,3.761,3.761v36.036C293.018,82.674,291.336,84.356,289.26,84.358z"/>
<path fill="#CCCCCC" d="M348.596,101.073h-30.537c-2.075-0.002-3.759-1.685-3.761-3.761V61.276c0.002-2.076,1.686-3.758,3.761-3.761
	h30.537c2.076,0.002,3.758,1.685,3.762,3.761v36.036C352.354,99.388,350.672,101.07,348.596,101.073z"/>
<path fill="#FF6584" d="M300.96,152.051h-30.537c-2.076-0.002-3.758-1.685-3.761-3.761v-36.036c0.002-2.076,1.685-3.758,3.761-3.761
	h30.537c2.076,0.002,3.759,1.685,3.761,3.761v36.036C304.719,150.367,303.036,152.049,300.96,152.051z"/>
<path fill="#EFA51F" d="M548.532,219.318h-47.636c-1.848,0-3.344-1.497-3.344-3.343c0-1.846,1.496-3.343,3.344-3.343l0,0h47.636
	c1.846,0,3.343,1.497,3.343,3.343C551.875,217.821,550.378,219.318,548.532,219.318L548.532,219.318z"/>
<path fill="#CCCCCC" d="M571.932,251.075h-94.436c-1.846,0.004-3.347-1.488-3.352-3.335c-0.005-1.846,1.488-3.346,3.334-3.351
	c0.007,0,0.013,0,0.018,0h94.436c1.848-0.004,3.348,1.488,3.353,3.334c0.005,1.847-1.488,3.347-3.334,3.352
	C571.943,251.075,571.938,251.075,571.932,251.075z"/>
<path fill="#CCCCCC" d="M571.932,268.625h-94.436c-1.846,0.004-3.347-1.488-3.352-3.334s1.488-3.347,3.334-3.351
	c0.007,0,0.013,0,0.018,0h94.436c1.848-0.005,3.348,1.488,3.353,3.334s-1.488,3.347-3.334,3.351
	C571.943,268.625,571.938,268.625,571.932,268.625z"/>
<path fill="#CCCCCC" d="M571.932,286.175h-94.436c-1.846,0.005-3.347-1.488-3.352-3.334c-0.005-1.846,1.488-3.347,3.334-3.351
	c0.007,0,0.013,0,0.018,0h94.436c1.848-0.004,3.348,1.488,3.353,3.334c0.005,1.846-1.488,3.347-3.334,3.351
	C571.943,286.175,571.938,286.175,571.932,286.175z"/>
<path fill="#CCCCCC" d="M571.932,303.725h-94.436c-1.846,0.004-3.347-1.488-3.352-3.334c-0.005-1.846,1.488-3.347,3.334-3.352
	c0.007,0,0.013,0,0.018,0h94.436c1.848-0.004,3.348,1.489,3.353,3.335c0.005,1.846-1.488,3.346-3.334,3.351
	C571.943,303.725,571.938,303.725,571.932,303.725z"/>
<path fill="#CCCCCC" d="M571.932,321.275h-94.436c-1.846,0.004-3.347-1.488-3.352-3.336c-0.005-1.847,1.488-3.347,3.334-3.351
	c0.007,0,0.013,0,0.018,0h94.436c1.848-0.004,3.348,1.489,3.353,3.334s-1.488,3.347-3.334,3.353
	C571.943,321.275,571.938,321.275,571.932,321.275z"/>
<path fill="#CCCCCC" d="M571.932,338.825h-94.436c-1.846,0.005-3.347-1.488-3.352-3.335c-0.005-1.846,1.488-3.346,3.334-3.352
	c0.007,0,0.013,0,0.018,0h94.436c1.848-0.005,3.348,1.487,3.353,3.334c0.005,1.848-1.488,3.348-3.334,3.353
	C571.943,338.825,571.938,338.825,571.932,338.825z"/>
</svg>
